<?xml version="1.0" standalone="no"?>
<!DOCTYPE svg PUBLIC "-//W3C//DTD SVG 20010904//EN"
 "http://www.w3.org/TR/2001/REC-SVG-20010904/DTD/svg10.dtd">
<svg version="1.0" xmlns="http://www.w3.org/2000/svg"
 width="600.000000pt" height="480.000000pt" viewBox="0 0 600.000000 480.000000"
 preserveAspectRatio="xMidYMid meet">

<g transform="translate(0.000000,480.000000) scale(0.100000,-0.100000)"
fill="#000000" stroke="none">
<path d="M1695 3309 c-17 -6 -17 -8 -2 -8 21 -1 22 -14 2 -31 -18 -15 -11 -45
16 -75 76 -82 110 -125 98 -125 -10 -1 -8 -4 4 -11 9 -6 15 -14 12 -20 -4 -5
0 -9 8 -9 7 0 20 -12 28 -27 18 -35 34 -53 49 -53 6 0 8 6 4 13 -4 6 5 1 19
-12 15 -14 27 -21 27 -16 0 5 9 -1 20 -13 27 -29 38 -28 46 3 3 14 10 25 15
25 5 0 9 7 9 15 0 14 -3 13 -27 -1 -26 -15 -27 -15 -8 0 19 16 18 16 -18 11
-35 -6 -43 -1 -38 27 1 11 -22 5 -32 -7 -5 -6 -7 2 -4 18 3 22 2 25 -9 16 -17
-14 -49 14 -38 33 5 8 2 9 -9 5 -11 -4 -17 -1 -17 8 0 8 -4 15 -10 15 -5 0
-10 6 -10 14 0 9 -7 12 -19 9 -13 -3 -20 2 -24 18 -7 25 16 59 40 59 7 0 13 5
13 10 0 6 -9 10 -20 10 -11 0 -20 -6 -20 -13 0 -15 -31 -47 -45 -47 -4 0 0 9
10 20 12 13 14 20 5 20 -7 0 -2 9 11 20 20 16 21 19 7 20 -9 0 -20 -4 -23 -10
-3 -5 -13 -10 -22 -10 -11 0 -13 4 -6 13 12 15 13 47 1 47 -4 0 -8 5 -8 11 0
6 9 8 23 3 31 -9 34 -14 17 -24 -9 -6 -10 -10 -3 -10 6 0 15 5 18 11 5 7 15 5
31 -6 13 -8 24 -13 24 -10 0 7 -101 69 -115 71 -5 1 -19 -2 -30 -7z"/>
<path d="M4287 3305 c-23 -16 -22 -28 2 -20 11 3 22 1 26 -5 3 -5 1 -10 -6
-10 -8 0 -8 -4 1 -15 11 -13 10 -14 -4 -9 -21 8 -20 0 2 -22 16 -17 16 -17 -5
-11 -13 4 -33 10 -45 13 l-23 6 23 -19 c20 -17 22 -22 10 -34 -7 -8 -13 -25
-13 -39 0 -20 -4 -25 -24 -22 -17 1 -22 -2 -17 -13 3 -9 0 -15 -9 -15 -8 0
-15 -7 -15 -16 0 -8 -4 -13 -8 -10 -4 2 -14 -9 -21 -26 -9 -19 -17 -26 -23
-20 -10 10 -48 -19 -48 -37 0 -12 -26 -22 -35 -13 -5 6 -65 11 -65 5 0 -1 9
-18 21 -37 21 -36 28 -37 62 -8 9 8 17 11 17 6 0 -5 10 2 21 16 14 17 22 21
26 12 4 -10 8 -10 19 -1 8 6 14 16 14 22 0 5 11 20 25 33 14 13 25 28 25 34 0
5 5 10 11 10 5 0 7 5 3 11 -3 6 10 28 29 48 70 70 85 90 92 119 4 22 2 31 -9
35 -21 8 -20 27 1 27 23 0 13 8 -18 13 -13 3 -32 -1 -42 -8z m3 -145 c0 -5 -4
-10 -10 -10 -5 0 -10 5 -10 10 0 6 5 10 10 10 6 0 10 -4 10 -10z"/>
<path d="M1615 3300 c-8 -12 20 -24 35 -15 5 3 10 1 10 -6 0 -7 2 -10 5 -7 3
3 3 13 -1 22 -7 18 -39 22 -49 6z"/>
<path d="M4390 3296 c0 -20 27 -28 34 -10 9 23 8 24 -14 24 -11 0 -20 -6 -20
-14z"/>
<path d="M4372 3280 c0 -14 2 -19 5 -12 2 6 2 18 0 25 -3 6 -5 1 -5 -13z"/>
<path d="M4219 3259 l-24 -20 24 11 c12 7 32 9 43 7 16 -4 17 -3 7 9 -15 19
-22 18 -50 -7z"/>
<path d="M1610 3243 c1 -5 8 -19 16 -33 8 -14 13 -17 10 -7 -3 10 -6 25 -6 33
0 8 -4 14 -10 14 -5 0 -10 -3 -10 -7z"/>
<path d="M4412 3225 c-7 -15 -11 -30 -8 -32 7 -7 28 36 24 49 -2 6 -9 -2 -16
-17z"/>
<path d="M4200 3201 c0 -5 9 -11 20 -14 13 -3 20 0 20 9 0 8 -9 14 -20 14 -11
0 -20 -4 -20 -9z"/>
<path d="M1520 3183 c0 -5 9 -18 20 -28 11 -10 20 -16 20 -13 0 3 -9 15 -20
28 -11 13 -20 19 -20 13z"/>
<path d="M4498 3165 c-20 -27 -23 -39 -7 -29 8 4 9 -1 4 -16 -5 -15 -4 -20 4
-16 15 10 14 -1 -5 -34 -13 -22 -14 -31 -5 -46 9 -13 11 -14 8 -3 -3 9 1 26 9
38 22 30 25 58 8 72 -13 10 -12 14 1 29 9 10 13 20 8 23 -4 3 -16 -6 -25 -18z"/>
<path d="M1590 3160 c0 -4 18 -27 41 -51 27 -29 42 -40 46 -31 4 10 8 9 18 -4
13 -18 45 -28 45 -14 0 17 -32 40 -57 40 -15 0 -38 13 -59 34 -19 19 -34 31
-34 26z"/>
<path d="M1880 3140 c0 -13 5 -18 15 -14 12 5 13 10 4 20 -15 19 -19 18 -19
-6z"/>
<path d="M4150 3146 c0 -9 5 -16 10 -16 6 0 10 4 10 9 0 6 -4 13 -10 16 -5 3
-10 -1 -10 -9z"/>
<path d="M1521 3126 c-10 -12 -10 -16 -2 -16 7 0 9 -5 6 -10 -4 -6 1 -22 10
-36 9 -13 13 -30 10 -37 -4 -7 1 -3 9 7 14 18 14 21 -1 38 -13 14 -14 21 -5
27 9 5 9 11 -1 25 -12 16 -14 16 -26 2z"/>
<path d="M4421 3126 c-6 -8 -32 -19 -56 -25 -26 -6 -49 -19 -55 -31 -15 -28
14 -27 33 1 11 15 16 17 20 7 3 -9 17 -1 43 25 21 20 36 37 33 37 -4 0 -12 -6
-18 -14z"/>
<path d="M1570 3111 c0 -5 5 -13 10 -16 6 -3 10 -2 10 4 0 5 -4 13 -10 16 -5
3 -10 2 -10 -4z"/>
<path d="M1939 3089 c14 -14 28 -18 39 -13 16 7 16 7 0 11 -10 3 -18 8 -18 12
0 4 -10 7 -21 8 l-22 2 22 -20z"/>
<path d="M4072 3093 c-16 -16 -15 -23 1 -23 8 0 22 9 32 19 16 19 16 20 -2 18
-11 0 -25 -7 -31 -14z"/>
<path d="M4455 3100 c-3 -5 -1 -10 4 -10 6 0 11 5 11 10 0 6 -2 10 -4 10 -3 0
-8 -4 -11 -10z"/>
<path d="M1494 3073 c9 -17 21 -35 27 -39 13 -8 -1 21 -26 51 -15 19 -15 18
-1 -12z"/>
<path d="M4532 3062 l-23 -37 26 28 c14 15 25 32 25 38 0 14 -3 11 -28 -29z"/>
<path d="M1430 3041 c0 -5 5 -13 10 -16 6 -3 10 -2 10 4 0 5 -4 13 -10 16 -5
3 -10 2 -10 -4z"/>
<path d="M1763 2983 c0 -15 2 -22 4 -15 3 6 10 9 16 5 7 -4 5 2 -3 13 -8 10
-15 20 -16 22 -1 2 -1 -10 -1 -25z"/>
<path d="M4262 2990 c-7 -11 -8 -20 -3 -20 9 0 24 30 18 36 -1 2 -8 -6 -15
-16z"/>
<path d="M1345 2971 c-3 -11 1 -33 9 -48 18 -33 20 -26 6 13 -8 20 -8 29 1 34
7 5 8 10 1 14 -6 3 -13 -3 -17 -13z"/>
<path d="M4676 2981 c-4 -6 -2 -11 4 -11 8 0 9 -11 5 -32 l-6 -33 16 29 c13
26 14 32 2 44 -10 10 -17 11 -21 3z"/>
<path d="M1722 2910 c0 -14 2 -19 5 -12 2 6 2 18 0 25 -3 6 -5 1 -5 -13z"/>
<path d="M4000 2875 c0 -8 4 -15 10 -15 5 0 7 7 4 15 -4 8 -8 15 -10 15 -2 0
-4 -7 -4 -15z"/>
<path d="M3963 2848 c1 -15 6 -23 11 -18 4 4 4 16 -2 26 -9 16 -10 14 -9 -8z"/>
<path d="M1210 2760 c-26 -16 -4 -21 26 -5 23 12 25 15 9 15 -11 0 -27 -4 -35
-10z"/>
<path d="M4809 2755 c42 -19 47 -19 31 0 -7 8 -24 15 -39 15 -25 -1 -25 -1 8
-15z"/>
<path d="M1080 2709 c0 -5 5 -7 10 -4 6 3 10 8 10 11 0 2 -4 4 -10 4 -5 0 -10
-5 -10 -11z"/>
<path d="M4945 2710 c3 -5 8 -10 11 -10 2 0 4 5 4 10 0 6 -5 10 -11 10 -5 0
-7 -4 -4 -10z"/>
</g>
</svg>
